# This file uses centimeters as units for non-parametric coordinates.

mtllib Limits.mtl
g default
v -29.008415 9.047329 -167.331596
v -53.509880 9.027911 -157.644524
v -79.033455 9.173583 -141.756721
v -100.159775 9.285923 -113.300072
v -108.663567 9.153441 -86.438225
v -119.062614 11.670707 39.661793
v -118.727684 11.714573 56.734961
v -102.690254 10.655716 138.265724
v -96.191902 10.172833 152.779823
v -85.405975 10.218495 171.338249
v -62.254051 10.416288 188.009560
v -39.049812 10.862229 194.209923
v 52.621494 12.207275 194.484123
v 87.652740 11.458486 170.241478
v 105.722031 11.095351 130.934593
v 119.133888 10.227309 104.854233
v 133.652451 11.656943 67.935394
v 145.379646 11.799448 30.265039
v 136.872398 12.305191 -3.672340
v 98.396790 8.822019 -97.890404
v 89.400177 9.192922 -116.291588
v 74.256035 9.147053 -136.351082
v 53.683010 9.162400 -154.708458
v 29.349730 9.044170 -164.961235
v 1.552381 9.103713 -171.100166
v -29.008415 66.676725 -167.331596
v -53.509880 66.657305 -157.644524
v -79.033455 66.802977 -141.756721
v -100.159775 66.915316 -113.300072
v -108.663567 66.782835 -86.438225
v -119.062622 69.300100 39.661793
v -118.727692 69.343966 56.734961
v -102.690254 68.285112 138.265732
v -96.191902 67.802229 152.779831
v -85.405975 67.847891 171.338249
v -62.254051 68.045683 188.009560
v -39.049812 68.491625 194.209923
v 52.621494 69.836668 194.484123
v 87.652740 69.087881 170.241478
v 105.722031 68.724745 130.934593
v 119.133888 67.856707 104.854233
v 133.652451 69.286337 67.935394
v 145.379631 69.428843 30.265039
v 136.872398 69.934587 -3.672340
v 98.396790 66.451414 -97.890404
v 89.400177 66.822317 -116.291588
v 74.256035 66.776449 -136.351082
v 53.683010 66.791796 -154.708458
v 29.349730 66.673563 -164.961235
v 1.552381 66.733107 -171.100166
vt -1.608345 9.451180
vt -2.833418 8.966826
vt -4.109597 8.172437
vt -5.165913 6.749605
vt -5.591103 5.406512
vt -6.111057 -0.898489
vt -6.094311 -1.752147
vt -5.292440 -5.828685
vt -4.967523 -6.554390
vt -4.428226 -7.482312
vt -3.270631 -8.315878
vt -2.110419 -8.625896
vt 2.473147 -8.639607
vt 4.224710 -7.427475
vt 5.128174 -5.462131
vt 5.797277 -4.157795
vt 5.798767 -4.158114
vt 6.524696 -2.312172
vt 7.111056 -0.428654
vt 6.685694 1.268215
vt 4.761915 5.979119
vt 4.312085 6.899178
vt 3.554878 7.902153
vt 2.526227 8.820022
vt 1.309563 9.332662
vt -0.080305 9.639608
vt -1.608345 9.451180
vt -2.833418 8.966826
vt -4.109597 8.172437
vt -5.165913 6.749605
vt -5.591103 5.406512
vt -6.111057 -0.898489
vt -6.094311 -1.752147
vt -5.292440 -5.828685
vt -4.967523 -6.554390
vt -4.428226 -7.482312
vt -3.270631 -8.315878
vt -2.110419 -8.625896
vt 2.473147 -8.639607
vt 4.224710 -7.427475
vt 5.128174 -5.462131
vt 5.798767 -4.158114
vt 5.800257 -4.158432
vt 6.524696 -2.312172
vt 7.111056 -0.428654
vt 6.685694 1.268215
vt 4.761915 5.979119
vt 4.312085 6.899178
vt 3.554878 7.902153
vt 2.526227 8.820022
vt 1.309563 9.332662
vt -0.080305 9.639608
vn 0.449892 -0.000000 0.893083
vn 0.247017 -0.000000 0.969011
vn 0.247017 -0.000000 0.969011
vn 0.449892 -0.000000 0.893083
vn 0.677588 -0.000000 0.735442
vn 0.677588 -0.000000 0.735442
vn 0.890384 -0.000000 0.455209
vn 0.890384 -0.000000 0.455209
vn 0.981157 0.000000 0.193214
vn 0.981157 0.000000 0.193214
vn 0.999509 0.000000 0.031328
vn 0.999509 0.000000 0.031328
vn 0.994290 0.000000 -0.106716
vn 0.994290 0.000000 -0.106716
vn 0.953065 0.000000 -0.302766
vn 0.953065 0.000000 -0.302766
vn 0.889879 0.000000 -0.456197
vn 0.889879 0.000000 -0.456197
vn 0.740760 0.000000 -0.671770
vn 0.740760 0.000000 -0.671770
vn 0.428284 0.000000 -0.903644
vn 0.428284 0.000000 -0.903644
vn 0.131666 0.000000 -0.991294
vn 0.131666 0.000000 -0.991294
vn -0.296650 0.000000 -0.954986
vn -0.296650 0.000000 -0.954986
vn -0.766023 0.000000 -0.642813
vn -0.766023 0.000000 -0.642813
vn -0.899166 0.000000 -0.437608
vn -0.899166 0.000000 -0.437608
vn -0.911108 0.000000 -0.412167
vn -0.911108 0.000000 -0.412167
vn -0.943340 -0.000000 -0.331827
vn -0.943340 -0.000000 -0.331827
vn -0.999605 -0.000000 -0.028090
vn -0.999605 -0.000000 -0.028090
vn -0.950282 -0.000000 0.311391
vn -0.950282 -0.000000 0.311391
vn -0.912591 -0.000000 0.408874
vn -0.912591 -0.000000 0.408874
vn -0.852156 -0.000000 0.523288
vn -0.852156 -0.000000 0.523288
vn -0.735454 -0.000000 0.677574
vn -0.735454 -0.000000 0.677574
vn -0.534283 -0.000000 0.845305
vn -0.534283 -0.000000 0.845305
vn -0.303215 -0.000000 0.952922
vn -0.303215 -0.000000 0.952922
vn -0.047314 -0.000000 0.998880
vn -0.047314 -0.000000 0.998880
s 1
g InvisibleWall
usemtl InvisibleWallSG2
f 2/2/1 1/1/2 26/27/3 27/28/4
f 3/3/5 2/2/1 27/28/4 28/29/6
f 4/4/7 3/3/5 28/29/6 29/30/8
f 5/5/9 4/4/7 29/30/8 30/31/10
f 6/6/11 5/5/9 30/31/10 31/32/12
f 7/7/13 6/6/11 31/32/12 32/33/14
f 8/8/15 7/7/13 32/33/14 33/34/16
f 9/9/17 8/8/15 33/34/16 34/35/18
f 10/10/19 9/9/17 34/35/18 35/36/20
f 11/11/21 10/10/19 35/36/20 36/37/22
f 12/12/23 11/11/21 36/37/22 37/38/24
f 13/13/25 12/12/23 37/38/24 38/39/26
f 14/14/27 13/13/25 38/39/26 39/40/28
f 15/15/29 14/14/27 39/40/28 40/41/30
f 16/17/31 15/15/29 40/41/30 41/42/32
f 17/18/33 16/17/31 41/42/32 42/44/34
f 18/19/35 17/18/33 42/44/34 43/45/36
f 19/20/37 18/19/35 43/45/36 44/46/38
f 20/21/39 19/20/37 44/46/38 45/47/40
f 21/22/41 20/21/39 45/47/40 46/48/42
f 22/23/43 21/22/41 46/48/42 47/49/44
f 23/24/45 22/23/43 47/49/44 48/50/46
f 24/25/47 23/24/45 48/50/46 49/51/48
f 25/26/49 24/25/47 49/51/48 50/52/50
f 1/1/2 25/26/49 50/52/50 26/27/3
