# This file uses centimeters as units for non-parametric coordinates.

mtllib Advertisments.mtl
g default
v 23.059699 8.209632 67.755075
v 42.497686 8.209632 82.737940
v 23.419299 8.209632 67.288549
v 42.857286 8.209632 82.271415
v 23.059699 21.126786 67.755075
v 42.497686 21.126786 82.737940
v 23.419299 21.126786 67.288549
v 42.857286 21.126786 82.271415
vt 1.000000 0.000000
vt 0.000000 0.000000
vt 1.000000 1.000000
vt 0.000000 1.000000
vt 0.000000 0.000000
vt 1.000000 0.000000
vt 0.000000 1.000000
vt 1.000000 1.000000
vt 0.000000 0.000000
vt 1.000000 0.000000
vt 0.000000 1.000000
vt 1.000000 1.000000
vt 0.000000 0.000000
vt 1.000000 0.000000
vt 0.000000 1.000000
vt 1.000000 1.000000
vt 0.000000 0.000000
vt 1.000000 0.000000
vt 0.000000 1.000000
vt 1.000000 1.000000
vt 0.000000 0.000000
vt 1.000000 0.000000
vt 0.000000 1.000000
vt 1.000000 1.000000
vn 0.000000 -1.000000 -0.000000
vn 0.000000 -1.000000 -0.000000
vn 0.000000 -1.000000 -0.000000
vn 0.000000 -1.000000 -0.000000
vn -0.000000 1.000000 0.000000
vn -0.000000 1.000000 0.000000
vn -0.000000 1.000000 0.000000
vn -0.000000 1.000000 0.000000
vn -0.610493 -0.000000 0.792022
vn -0.610493 -0.000000 0.792022
vn -0.610493 -0.000000 0.792022
vn -0.610493 -0.000000 0.792022
vn 0.792022 0.000000 0.610493
vn 0.792022 0.000000 0.610493
vn 0.792022 0.000000 0.610493
vn 0.792022 0.000000 0.610493
vn 0.610493 0.000000 -0.792022
vn 0.610493 0.000000 -0.792022
vn 0.610493 0.000000 -0.792022
vn 0.610493 0.000000 -0.792022
vn -0.792022 -0.000000 -0.610493
vn -0.792022 -0.000000 -0.610493
vn -0.792022 -0.000000 -0.610493
vn -0.792022 -0.000000 -0.610493
s off
g Addvertisment
usemtl AddvertismentSG24
f 1/1/1 3/3/2 4/4/3 2/2/4
f 5/5/5 6/6/6 8/8/7 7/7/8
f 1/9/9 2/10/10 6/12/11 5/11/12
f 2/13/13 4/14/14 8/16/15 6/15/16
f 4/17/17 3/18/18 7/20/19 8/19/20
f 3/21/21 1/22/22 5/24/23 7/23/24
g default
v 3.421664 4.907630 121.747160
v 27.359469 4.907630 116.333926
v 3.291742 4.907630 121.172635
v 27.229547 4.907630 115.759402
v 3.421664 17.824784 121.747160
v 27.359469 17.824784 116.333926
v 3.291742 17.824784 121.172635
v 27.229547 17.824784 115.759402
vt 0.000000 0.000000
vt 1.000000 0.000000
vt 0.000000 1.000000
vt 1.000000 1.000000
vt 0.000000 0.000000
vt 1.000000 0.000000
vt 0.000000 1.000000
vt 1.000000 1.000000
vt 0.000000 0.000000
vt 1.000000 0.000000
vt 0.000000 1.000000
vt 1.000000 1.000000
vn -0.000000 -1.000000 -0.000000
vn -0.000000 -1.000000 -0.000000
vn -0.000000 -1.000000 -0.000000
vn -0.000000 -1.000000 -0.000000
vn 0.000000 1.000000 0.000000
vn 0.000000 1.000000 0.000000
vn 0.000000 1.000000 0.000000
vn 0.000000 1.000000 0.000000
vn 0.220568 -0.000000 0.975372
vn 0.220568 -0.000000 0.975372
vn 0.220568 -0.000000 0.975372
vn 0.220568 -0.000000 0.975372
vn 0.975372 0.000000 -0.220568
vn 0.975372 0.000000 -0.220568
vn 0.975372 0.000000 -0.220568
vn 0.975372 0.000000 -0.220568
vn -0.220568 0.000000 -0.975372
vn -0.220568 0.000000 -0.975372
vn -0.220568 0.000000 -0.975372
vn -0.220568 0.000000 -0.975372
vn -0.975372 -0.000000 0.220568
vn -0.975372 -0.000000 0.220568
vn -0.975372 -0.000000 0.220568
vn -0.975372 -0.000000 0.220568
s 1
g Addvertisment1
usemtl AddvertismentSG25
f 9/34/25 11/36/26 12/35/27
f 12/35/27 10/33/28 9/34/25
s 2
f 13/33/29 14/34/30 16/36/31
f 16/36/31 15/35/32 13/33/29
s 3
f 9/29/33 10/30/34 14/32/35
f 14/32/35 13/31/36 9/29/33
s 4
f 10/25/37 12/26/38 16/28/39
f 16/28/39 14/27/40 10/25/37
s 5
f 12/29/41 11/30/42 15/32/43
f 15/32/43 16/31/44 12/29/41
s 6
f 11/25/45 9/26/46 13/28/47
f 13/28/47 15/27/48 11/25/45
g default
v 15.811099 7.566932 11.375502
v 6.877761 7.566932 34.234131
v 16.359723 7.566932 11.589908
v 7.426385 7.566932 34.448538
v 15.811099 20.484086 11.375502
v 6.877761 20.484086 34.234131
v 16.359723 20.484086 11.589908
v 7.426385 20.484086 34.448538
vt 0.000000 0.000000
vt 1.000000 0.000000
vt 0.000000 1.000000
vt 1.000000 1.000000
vt 0.000000 0.000000
vt 1.000000 0.000000
vt 0.000000 1.000000
vt 1.000000 1.000000
vt 0.000000 0.000000
vt 1.000000 0.000000
vt 0.000000 1.000000
vt 1.000000 1.000000
vn 0.000000 -1.000000 -0.000000
vn 0.000000 -1.000000 -0.000000
vn 0.000000 -1.000000 -0.000000
vn 0.000000 -1.000000 -0.000000
vn -0.000000 1.000000 0.000000
vn -0.000000 1.000000 0.000000
vn -0.000000 1.000000 0.000000
vn -0.000000 1.000000 0.000000
vn -0.931400 0.000000 -0.363999
vn -0.931400 0.000000 -0.363999
vn -0.931400 0.000000 -0.363999
vn -0.931400 0.000000 -0.363999
vn -0.363998 -0.000000 0.931400
vn -0.363998 -0.000000 0.931400
vn -0.363998 -0.000000 0.931400
vn -0.363998 -0.000000 0.931400
vn 0.931400 -0.000000 0.363999
vn 0.931400 -0.000000 0.363999
vn 0.931400 -0.000000 0.363999
vn 0.931400 -0.000000 0.363999
vn 0.363998 0.000000 -0.931400
vn 0.363998 0.000000 -0.931400
vn 0.363998 0.000000 -0.931400
vn 0.363998 0.000000 -0.931400
s 1
g Addvertisment2
usemtl AddvertismentSG26
f 17/46/49 19/48/50 20/47/51
f 20/47/51 18/45/52 17/46/49
s 2
f 21/45/53 22/46/54 24/48/55
f 24/48/55 23/47/56 21/45/53
s 3
f 17/41/57 18/42/58 22/44/59
f 22/44/59 21/43/60 17/41/57
s 4
f 18/37/61 20/38/62 24/40/63
f 24/40/63 22/39/64 18/37/61
s 5
f 20/41/65 19/42/66 23/44/67
f 23/44/67 24/43/68 20/41/65
s 6
f 19/37/69 17/38/70 21/40/71
f 21/40/71 23/39/72 19/37/69
